<svg width="0px" xmlns="http://www.w3.org/2000/svg">
  <defs></defs>
  <g id="Layer_6" data-name="Layer 6" transform="matrix(1.718096, 0, 0, 1.718096, -71.846577, -25.733353)">
    <path class="cls-2" d="M145.37,46.81A9.27,9.27,0,0,0,152,42.94a10.2,10.2,0,0,0,1.64-6c0-4.75-2.36-8.17-8.23-9.65h35.48v6H162.48V41H174v6.31H162.49v8.81h18.43V62H154.45Z" style="fill: rgb(1, 1, 1);"></path>
    <path class="cls-2" d="M42.85,55.85c.21,0,.39,0,.57,0l26.34-.09c.61,0,.86.13.84.81,0,1.78,0,3.57,0,5.42H42.85Z" style="fill: rgb(1, 1, 1);"></path>
    <path class="cls-2" d="M70.14,27.28v5.6H42.84v-5.6Z" style="fill: rgb(1, 1, 1);"></path>
    <path class="cls-2" d="M80.89,45.84,91.68,62H76.3c0-.23,0-.45,0-.68,0-3.41,0-6.83,0-10.24a1.31,1.31,0,0,1,.29-.87c1.33-1.4,2.69-2.76,4-4.13A3.11,3.11,0,0,1,80.89,45.84Z" style="fill: rgb(1, 1, 1);"></path>
    <path class="cls-2" d="M134.29,47.45c1.51,0,3,0,4.43,0a.74.74,0,0,1,.46.34q3.81,6.95,7.61,13.91a1.52,1.52,0,0,1,.05.25H134.29Z" style="fill: rgb(1, 1, 1);"></path>
    <path class="cls-2" d="M134.27,42c0-.29,0-.49,0-.7,0-2.78,0-5.56,0-8.35,0-.58.18-.75.75-.74,2.39.08,4.77.1,7.16.16a7.05,7.05,0,0,1,1.36.24c3.5.82,4.18,3.69,3.3,6.39-.55,1.7-2,2.38-3.65,2.74a8.39,8.39,0,0,1-1.65.22c-2.2,0-4.4.06-6.61.08C134.7,42.07,134.52,42,134.27,42Z" style="fill: rgb(1, 1, 1);"></path>
    <path class="cls-2" d="M89.32,27.29l-13,13.8V27.29Z" style="fill: rgb(1, 1, 1);"></path>
    <path class="cls-2" d="M42.84,46.89V40.67H63.17v6.22Z" style="fill: rgb(1, 1, 1);"></path>
    <path class="cls-2" d="M126.68,59.42a2.51,2.51,0,0,1,2.52-2.48,2.57,2.57,0,0,1,2.5,2.53A2.53,2.53,0,0,1,129.12,62,2.47,2.47,0,0,1,126.68,59.42Z" style="fill: rgb(1, 1, 1);"></path>
    <path class="cls-2" d="M128.8,44.2a18.16,18.16,0,0,0-10.39-16.41,5.51,5.51,0,0,0-2.39-.55c-5.42,0-10.84,0-16.26,0a1.64,1.64,0,0,0-1.27.53q-5.77,5.87-11.57,11.7a8.64,8.64,0,0,1-.88.69v0a2.57,2.57,0,0,1,.26.41q7.42,10.48,14.85,21a1,1,0,0,0,1,.45h11a9,9,0,0,0,2.53-.35A18.16,18.16,0,0,0,128.8,44.2Zm-29,0A10.79,10.79,0,1,1,110.63,55,10.73,10.73,0,0,1,99.85,44.21Z" style="fill: rgb(1, 1, 1);"></path>
    <path class="cls-2" d="M129,32.62s-3.13-3.57-4.73-5.07H129Z" style="fill: rgb(1, 1, 1);"></path>
    <path class="cls-2" d="M190.73,27.11h-6.91c-.25,0-.5,0-.78,0V61.87h7.69Z" style="fill: rgb(1, 1, 1);"></path>
    <path class="cls-2" d="M213.21,39.09A14.45,14.45,0,0,0,207.53,30a16.14,16.14,0,0,0-9.64-2.84l-5.07,0v6.52a59,59,0,0,1,6.27.37,7.29,7.29,0,0,1,6.24,5.71,17.44,17.44,0,0,1,.1,9.74,7.8,7.8,0,0,1-8,5.94h-4.61v6.48h5.32a18.36,18.36,0,0,0,2.22-.13c6-.73,10.13-4,12.16-9.68A23.62,23.62,0,0,0,213.21,39.09Z" style="fill: rgb(1, 1, 1);"></path>
  </g>
</svg>