<svg xmlns="http://www.w3.org/2000/svg" viewBox="0 0 222.44 69.97">
  <defs>
    <style>
      .cls-1 {
        fill: #231f20
      }
    </style>
  </defs>
  <g id="Layer_3" data-name="Layer 3">
    <path
      d="M10.81 55.37h5.5v1.08h-4.17v1.87H16v1h-3.86v2.08h4.24v1.1h-5.57ZM22.71 57.64a2.44 2.44 0 0 0-.24-.57 1.63 1.63 0 0 0-.38-.45 1.7 1.7 0 0 0-.55-.29 2.35 2.35 0 0 0-.74-.11 2.32 2.32 0 0 0-1.05.23 2 2 0 0 0-.72.61 2.45 2.45 0 0 0-.41.88 3.72 3.72 0 0 0-.14 1 3.77 3.77 0 0 0 .14 1 2.49 2.49 0 0 0 .41.87 1.87 1.87 0 0 0 .72.61 2.44 2.44 0 0 0 1.85.09 2 2 0 0 0 .59-.4 1.86 1.86 0 0 0 .38-.6 2.82 2.82 0 0 0 .18-.72h1.31a3.15 3.15 0 0 1-.3 1.16 2.69 2.69 0 0 1-.68.92 3.11 3.11 0 0 1-1 .59 3.74 3.74 0 0 1-1.28.21 3.9 3.9 0 0 1-1.53-.29 3.42 3.42 0 0 1-1.15-.81 3.28 3.28 0 0 1-.72-1.19 4.12 4.12 0 0 1 0-2.88 3.36 3.36 0 0 1 .72-1.19 3.42 3.42 0 0 1 1.15-.81 3.73 3.73 0 0 1 1.53-.3 4.26 4.26 0 0 1 1.21.17 3.1 3.1 0 0 1 1 .48 2.57 2.57 0 0 1 .71.76 2.77 2.77 0 0 1 .33 1ZM28.53 55.2a3.78 3.78 0 0 1 1.54.3 3.42 3.42 0 0 1 1.15.81 3.68 3.68 0 0 1 .72 1.19 4.27 4.27 0 0 1 0 2.88 3.58 3.58 0 0 1-.72 1.19 3.42 3.42 0 0 1-1.15.81 4 4 0 0 1-1.54.29 3.9 3.9 0 0 1-1.53-.29 3.32 3.32 0 0 1-1.15-.81 3.44 3.44 0 0 1-.73-1.19 4.27 4.27 0 0 1 0-2.88 3.54 3.54 0 0 1 .73-1.19A3.32 3.32 0 0 1 27 55.5a3.73 3.73 0 0 1 1.53-.3Zm0 1a2.29 2.29 0 0 0-1.05.23 2 2 0 0 0-.72.61 2.65 2.65 0 0 0-.42.88 3.71 3.71 0 0 0-.13 1 3.76 3.76 0 0 0 .13 1 2.7 2.7 0 0 0 .42.87 1.87 1.87 0 0 0 .72.61 2.17 2.17 0 0 0 1.05.23 2.21 2.21 0 0 0 1.06-.23 2 2 0 0 0 .72-.61 2.9 2.9 0 0 0 .41-.87 3.77 3.77 0 0 0 .14-1 3.72 3.72 0 0 0-.14-1 2.85 2.85 0 0 0-.41-.88 2.13 2.13 0 0 0-.72-.61 2.33 2.33 0 0 0-1.06-.21ZM33.36 55.37h1.41l3.49 5.25v-5.25h1.28v7.13h-1.4l-3.47-5.24v5.24h-1.31ZM44.4 55.2a3.73 3.73 0 0 1 1.53.3 3.32 3.32 0 0 1 1.15.81 3.54 3.54 0 0 1 .73 1.19 4.27 4.27 0 0 1 0 2.88 3.44 3.44 0 0 1-.73 1.19 3.32 3.32 0 0 1-1.15.81 4.21 4.21 0 0 1-3.07 0 3.41 3.41 0 0 1-1.87-2 4.12 4.12 0 0 1 0-2.88 3.51 3.51 0 0 1 .72-1.19 3.42 3.42 0 0 1 1.15-.81 3.74 3.74 0 0 1 1.54-.3Zm0 1a2.33 2.33 0 0 0-1.06.23 2 2 0 0 0-.72.61 2.64 2.64 0 0 0-.41.88 3.72 3.72 0 0 0-.14 1 3.77 3.77 0 0 0 .14 1 2.68 2.68 0 0 0 .41.87 1.94 1.94 0 0 0 .72.61 2.53 2.53 0 0 0 2.11 0 1.87 1.87 0 0 0 .72-.61 2.49 2.49 0 0 0 .41-.87 3.77 3.77 0 0 0 .14-1 3.72 3.72 0 0 0-.14-1 2.45 2.45 0 0 0-.41-.88 2 2 0 0 0-.72-.61 2.32 2.32 0 0 0-1.05-.21ZM49.26 55.37h1.88L53.25 61l2-5.58h1.87v7.08h-1.21V57l-2.12 5.5h-1.1L50.55 57v5.5h-1.29ZM58.79 55.37h1.34v7.13h-1.34Zm1-2.11h1.44l-1.52 1.42h-.91ZM63.81 55.37h1.43l2.94 7.13h-1.43L66 60.61h-3l-.72 1.89h-1.4Zm-.47 4.3h2.34l-1.15-3.07ZM71.88 55.37h3.38a3.49 3.49 0 0 1 1.32.22 2.14 2.14 0 0 1 .8.55 1.93 1.93 0 0 1 .38.72 3.27 3.27 0 0 1 .1.72 3.11 3.11 0 0 1-.1.71 1.93 1.93 0 0 1-.38.72 2 2 0 0 1-.8.54 3.49 3.49 0 0 1-1.32.22h-2v2.73h-1.38Zm1.34 3.38h2a1.88 1.88 0 0 0 .46-.06 1.3 1.3 0 0 0 .43-.2 1 1 0 0 0 .33-.36 1.16 1.16 0 0 0 .12-.56 1.39 1.39 0 0 0-.11-.58.94.94 0 0 0-.29-.36 1 1 0 0 0-.41-.19 2.76 2.76 0 0 0-.51 0h-2ZM82.28 55.2a3.73 3.73 0 0 1 1.53.3 3.32 3.32 0 0 1 1.15.81 3.54 3.54 0 0 1 .73 1.19 4.27 4.27 0 0 1 0 2.88 3.44 3.44 0 0 1-.69 1.19 3.32 3.32 0 0 1-1.15.81 3.9 3.9 0 0 1-1.53.29 4 4 0 0 1-1.54-.29 3.42 3.42 0 0 1-1.15-.81 3.58 3.58 0 0 1-.72-1.19 4.27 4.27 0 0 1 0-2.88 3.68 3.68 0 0 1 .72-1.19 3.42 3.42 0 0 1 1.15-.81 3.78 3.78 0 0 1 1.5-.3Zm0 1a2.33 2.33 0 0 0-1.06.23 2.13 2.13 0 0 0-.72.61 2.85 2.85 0 0 0-.41.88 3.72 3.72 0 0 0-.14 1 3.77 3.77 0 0 0 .14 1 2.9 2.9 0 0 0 .41.87 2 2 0 0 0 .72.61 2.21 2.21 0 0 0 1.06.23 2.17 2.17 0 0 0 1-.23 1.87 1.87 0 0 0 .72-.61 2.7 2.7 0 0 0 .42-.87 3.76 3.76 0 0 0 .13-1 3.71 3.71 0 0 0-.13-1 2.65 2.65 0 0 0-.42-.88 2 2 0 0 0-.72-.61 2.29 2.29 0 0 0-1-.21ZM87.16 55.37h1.34v6.05h3.88v1.08h-5.22ZM93.3 55.37h1.34v7.13H93.3Zm1-2.11h1.44l-1.54 1.42h-.89ZM95.55 55.37h6.19v1.08h-2.43v6H98v-6h-2.45ZM102.63 55.37H104v7.13h-1.33ZM110.76 57.64a2.43 2.43 0 0 0-.23-.57 1.67 1.67 0 0 0-.39-.45 1.7 1.7 0 0 0-.55-.29 2.52 2.52 0 0 0-1.79.12 2 2 0 0 0-.72.61 2.64 2.64 0 0 0-.41.88 3.72 3.72 0 0 0-.14 1 3.77 3.77 0 0 0 .14 1 2.68 2.68 0 0 0 .41.87 1.87 1.87 0 0 0 .72.61 2.21 2.21 0 0 0 1.06.23 2.14 2.14 0 0 0 .79-.14 1.75 1.75 0 0 0 1-1 2.46 2.46 0 0 0 .18-.72h1.31a3.36 3.36 0 0 1-.29 1.16 3 3 0 0 1-.68.92 3.27 3.27 0 0 1-1 .59 3.72 3.72 0 0 1-1.27.21 3.92 3.92 0 0 1-1.54-.29 3.42 3.42 0 0 1-1.15-.81 3.28 3.28 0 0 1-.72-1.19 4.12 4.12 0 0 1 0-2.88 3.36 3.36 0 0 1 .72-1.19 3.42 3.42 0 0 1 1.15-.81 3.74 3.74 0 0 1 1.54-.3 4.24 4.24 0 0 1 1.2.17 3.25 3.25 0 0 1 1 .48 2.67 2.67 0 0 1 .7.76 2.45 2.45 0 0 1 .33 1ZM115.37 55.37h1.43l2.94 7.13h-1.43l-.72-1.89h-3l-.72 1.89h-1.38Zm-.47 4.3h2.34l-1.15-3.07ZM125.44 59.71l-2.87-4.34h1.55l2 3.2 2-3.2h1.5l-2.86 4.34v2.79h-1.33ZM133.34 55.37h1.88l2.11 5.63 2.05-5.58h1.87v7.08H140V57l-2.12 5.5h-1.1l-2.15-5.5v5.5h-1.27ZM142.79 55.37h1.34v4.88a1.66 1.66 0 0 0 .22.67 1.25 1.25 0 0 0 .53.48 2.16 2.16 0 0 0 1 .19 2.11 2.11 0 0 0 1-.19 1.34 1.34 0 0 0 .54-.48 1.51 1.51 0 0 0 .21-.67 5.79 5.79 0 0 0 0-.72v-4.16h1.34v4.57a2.94 2.94 0 0 1-.23 1.19 2.26 2.26 0 0 1-.63.86 2.74 2.74 0 0 1-1 .51 4.74 4.74 0 0 1-1.29.17 4.61 4.61 0 0 1-1.28-.17 2.58 2.58 0 0 1-1-.51 2.29 2.29 0 0 1-.64-.86 2.94 2.94 0 0 1-.22-1.19ZM150.55 55.37H152l3.49 5.25v-5.25h1.28v7.13h-1.42l-3.48-5.24v5.24h-1.27ZM158.33 55.37h3.17a3.93 3.93 0 0 1 1.52.28 2.76 2.76 0 0 1 1 .77 3.15 3.15 0 0 1 .6 1.13 4.9 4.9 0 0 1 0 2.77 3.19 3.19 0 0 1-.6 1.14 2.74 2.74 0 0 1-1 .76 3.75 3.75 0 0 1-1.52.28h-3.17Zm1.34 6.11H161a3.56 3.56 0 0 0 1.28-.19 1.82 1.82 0 0 0 .78-.54 1.91 1.91 0 0 0 .39-.81 4.52 4.52 0 0 0 .1-1 4.61 4.61 0 0 0-.1-1 1.91 1.91 0 0 0-.39-.81 1.8 1.8 0 0 0-.78-.53 3.54 3.54 0 0 0-1.28-.2h-1.31ZM169.31 55.2a3.81 3.81 0 0 1 1.54.3 3.52 3.52 0 0 1 1.15.81 3.68 3.68 0 0 1 .72 1.19 4.27 4.27 0 0 1 0 2.88 3.58 3.58 0 0 1-.72 1.19 3.52 3.52 0 0 1-1.15.81 4 4 0 0 1-1.54.29 3.9 3.9 0 0 1-1.53-.29 3.46 3.46 0 0 1-1.16-.81 3.58 3.58 0 0 1-.72-1.19 4.27 4.27 0 0 1 0-2.88 3.68 3.68 0 0 1 .72-1.19 3.46 3.46 0 0 1 1.16-.81 3.73 3.73 0 0 1 1.53-.3Zm0 1a2.26 2.26 0 0 0-1.05.23 2.08 2.08 0 0 0-.73.61 2.85 2.85 0 0 0-.41.88 3.71 3.71 0 0 0-.13 1 3.76 3.76 0 0 0 .13 1 2.9 2.9 0 0 0 .41.87 2 2 0 0 0 .73.61 2.14 2.14 0 0 0 1.05.23 2.21 2.21 0 0 0 1.06-.23 2 2 0 0 0 .72-.61 2.9 2.9 0 0 0 .41-.87 3.76 3.76 0 0 0 .13-1 3.71 3.71 0 0 0-.13-1 2.85 2.85 0 0 0-.41-.88 2.13 2.13 0 0 0-.72-.61 2.33 2.33 0 0 0-1.06-.21ZM177.17 55.37h3.17a3.93 3.93 0 0 1 1.52.28 2.92 2.92 0 0 1 1 .77 3.15 3.15 0 0 1 .6 1.13 4.9 4.9 0 0 1 0 2.77 3.19 3.19 0 0 1-.6 1.14 2.9 2.9 0 0 1-1 .76 3.75 3.75 0 0 1-1.52.28h-3.17Zm1.34 6.11h1.31a3.56 3.56 0 0 0 1.28-.19 1.88 1.88 0 0 0 .78-.54 1.91 1.91 0 0 0 .39-.81 4.52 4.52 0 0 0 .1-1 4.61 4.61 0 0 0-.1-1 1.91 1.91 0 0 0-.39-.81 1.86 1.86 0 0 0-.78-.53 3.54 3.54 0 0 0-1.28-.2h-1.31ZM184.9 55.37h1.33v7.13h-1.33ZM194.54 62.5h-.86l-.2-.84a2.83 2.83 0 0 1-2.3 1 4 4 0 0 1-1.54-.29 3.52 3.52 0 0 1-1.15-.81 3.58 3.58 0 0 1-.72-1.19 4.27 4.27 0 0 1 0-2.88 3.68 3.68 0 0 1 .72-1.19 3.52 3.52 0 0 1 1.15-.81 3.81 3.81 0 0 1 1.54-.3 4.15 4.15 0 0 1 1.18.16 3 3 0 0 1 1 .46 2.41 2.41 0 0 1 .73.76 2.62 2.62 0 0 1 .37 1.06h-1.31a1.59 1.59 0 0 0-.23-.62 1.71 1.71 0 0 0-.45-.44 1.88 1.88 0 0 0-.59-.27 2.74 2.74 0 0 0-.7-.09 2.26 2.26 0 0 0-1.05.23 2.08 2.08 0 0 0-.73.61 2.85 2.85 0 0 0-.41.88 3.71 3.71 0 0 0-.13 1 3.76 3.76 0 0 0 .13 1 2.9 2.9 0 0 0 .41.87 2 2 0 0 0 .73.61 2.14 2.14 0 0 0 1.05.23 2.58 2.58 0 0 0 .91-.12 1.85 1.85 0 0 0 .67-.39 1.6 1.6 0 0 0 .41-.63 2.54 2.54 0 0 0 .15-.81h-2v-1h3.25ZM196 55.37h1.33v7.13H196ZM198.24 55.37h6.19v1.08H202v6h-1.34v-6h-2.42ZM206.38 55.37h1.42l2.95 7.13h-1.44l-.71-1.89h-3.06l-.71 1.89h-1.38Zm-.47 4.3h2.33l-1.14-3.07ZM211.47 55.37h1.34v6.05h3.89v1.08h-5.23ZM134.88 28.1c3.34-.54 6.1-1.84 8-4.62a12.26 12.26 0 0 0 2-7.18c0-5.67-2.81-9.76-9.83-11.53h42.42v7.14h-22.13v9.25h13.73v7.56h-13.71v10.53h22v7h-31.62c-3.59-6.04-7.19-12.04-10.86-18.15ZM12.32 38.91H13l31.49-.1c.73 0 1 .16 1 1-.06 2.14 0 4.27 0 6.48H12.32ZM44.94 4.76v6.69H12.3V4.76ZM57.8 27l12.9 19.21H52.31c0-.28-.05-.55-.05-.82V33.15a1.66 1.66 0 0 1 .34-1c1.59-1.67 3.23-3.3 4.85-4.93a1.75 1.75 0 0 1 .35-.22ZM121.63 28.87h5.31a.77.77 0 0 1 .54.4q4.58 8.3 9.1 16.62a.92.92 0 0 1 .06.3h-15Z"
      class="cls-1" />
    <path
      d="M121.61 22.38V11.56c0-.7.21-.9.89-.88 2.86.08 5.71.11 8.56.19a7.52 7.52 0 0 1 1.63.28c4.19 1 5 4.41 4 7.64-.66 2-2.42 2.85-4.37 3.28a9.33 9.33 0 0 1-2 .26c-2.63.06-5.27.07-7.9.1-.29.01-.5-.02-.81-.05ZM67.87 4.77 52.33 21.26V4.77ZM12.3 28.2v-7.44h24.31v7.44ZM112.54 43.18a3 3 0 0 1 3-3 3.08 3.08 0 0 1 3 3 3 3 0 0 1-3.08 3 2.94 2.94 0 0 1-2.92-3ZM115.07 25a21.72 21.72 0 0 0-12.41-19.64 6.76 6.76 0 0 0-2.86-.65H80.36a1.93 1.93 0 0 0-1.52.64q-6.9 7-13.83 14a12.36 12.36 0 0 1-1.05.83v.05a3 3 0 0 1 .31.48L82 45.74a1.25 1.25 0 0 0 1.19.54h13.19a11.15 11.15 0 0 0 3-.42A21.73 21.73 0 0 0 115.07 25Zm-34.61 0a12.9 12.9 0 1 1 12.89 12.88A12.82 12.82 0 0 1 80.46 25ZM115.34 11.13s-3.75-4.25-5.65-6.05h5.65ZM189.12 4.55h-9.19v41.5h9.19ZM216 18.87A17.31 17.31 0 0 0 209.21 8a19.31 19.31 0 0 0-11.53-3.39h-6.06v7.78a68.8 68.8 0 0 1 7.5.45c3.91.54 6.38 3 7.45 6.82a20.89 20.89 0 0 1 .13 11.65c-1.33 4.59-4.79 7.09-9.58 7.1h-5.5v7.75H198a21.42 21.42 0 0 0 2.65-.16c7.22-.87 12.11-4.75 14.54-11.58a28.15 28.15 0 0 0 .81-15.55Z"
      class="cls-1" />
  </g>
</svg>