<svg xmlns="http://www.w3.org/2000/svg" viewBox="0 0 222.44 69.97">
    <defs>
        <style>
            .cls-1 {
                fill: #FFCF01
            }
        </style>
    </defs>
    <g id="Layer_3" data-name="Layer 3">
        <path
            d="M130.86 38.11c3.34-.54 6.1-1.84 8-4.62a12.35 12.35 0 0 0 2-7.18c0-5.67-2.82-9.77-9.84-11.53h42.42v7.14h-22.13v9.25h13.74v7.55h-13.72v10.54h22v7h-31.61ZM8.29 48.92c.25 0 .47-.05.68-.05q15.75 0 31.49-.11c.73 0 1 .16 1 1-.05 2.13 0 4.27 0 6.48H8.29ZM40.91 14.76v6.7H8.28v-6.7ZM53.77 37l12.9 19.26H48.28c0-.27-.05-.54-.05-.81V43.2a1.6 1.6 0 0 1 .34-1c1.59-1.67 3.22-3.3 4.85-4.94a2.8 2.8 0 0 1 .35-.26ZM117.61 38.87h5.3a.84.84 0 0 1 .55.4q4.56 8.31 9.09 16.63a1.1 1.1 0 0 1 .07.3h-15Z"
            class="cls-1" />
        <path
            d="M117.59 32.39V21.56c0-.7.21-.9.9-.88 2.85.08 5.7.11 8.56.18a9.27 9.27 0 0 1 1.63.28c4.18 1 5 4.42 3.94 7.65-.65 2-2.42 2.85-4.36 3.28a10.23 10.23 0 0 1-2 .26c-2.63 0-5.26.07-7.9.09-.25.02-.47-.01-.77-.03ZM63.85 14.77 48.3 31.27v-16.5ZM8.28 38.2v-7.43h24.3v7.43ZM108.52 53.19a3 3 0 0 1 3-3 3.08 3.08 0 0 1 3 3 3 3 0 0 1-3.08 3 3 3 0 0 1-2.92-3ZM111.05 35a21.71 21.71 0 0 0-12.42-19.63 6.59 6.59 0 0 0-2.86-.66H76.33a2 2 0 0 0-1.52.64q-6.9 7-13.83 14a10.55 10.55 0 0 1-1 .82v.05a3.12 3.12 0 0 1 .31.49Q69.12 43.21 78 55.75a1.27 1.27 0 0 0 1.2.54h13.17a10.71 10.71 0 0 0 3-.42A21.72 21.72 0 0 0 111.05 35Zm-34.61 0a12.89 12.89 0 1 1 12.89 12.88A12.83 12.83 0 0 1 76.44 35ZM111.31 21.14s-3.74-4.26-5.65-6.06h5.65ZM185.1 14.56h-9.2v41.55h9.2ZM212 28.88A17.29 17.29 0 0 0 205.18 18a19.24 19.24 0 0 0-11.52-3.4h-6.07v7.79a68.65 68.65 0 0 1 7.5.45c3.91.53 6.39 3 7.46 6.82a20.89 20.89 0 0 1 .12 11.65c-1.33 4.59-4.78 7.09-9.57 7.1h-5.51v7.74H194a23.41 23.41 0 0 0 2.6-.15c7.22-.88 12.11-4.75 14.54-11.58a28.16 28.16 0 0 0 .86-15.54Z"
            class="cls-1" />
    </g>
</svg>